<?xml version="1.0" encoding="utf-8"?>
<!-- Generator: Adobe Illustrator 16.0.3, SVG Export Plug-In . SVG Version: 6.00 Build 0)  -->
<!DOCTYPE svg PUBLIC "-//W3C//DTD SVG 1.1//EN" "http://www.w3.org/Graphics/SVG/1.1/DTD/svg11.dtd">
<svg version="1.1" id="Layer_1" xmlns="http://www.w3.org/2000/svg" xmlns:xlink="http://www.w3.org/1999/xlink" x="0px" y="0px"
	 width="512px" height="512px" viewBox="0 0 512 512" enable-background="new 0 0 512 512" xml:space="preserve">
<g>
	<path fill="#FF5533" d="M377.344,352.768c-19.499,0-35.362-15.863-35.362-35.363s15.863-35.363,35.362-35.363
		c9.655,0,19.015,3.917,25.675,10.747c6.479,6.644,9.921,15.371,9.689,24.579C412.708,336.893,396.844,352.768,377.344,352.768z
		 M377.344,289.792c-15.225,0-27.61,12.388-27.61,27.612s12.387,27.611,27.61,27.611c15.227,0,27.612-12.388,27.612-27.611
		C404.956,302.18,392.569,289.792,377.344,289.792z"/>
	<path fill="#FF5533" d="M357.888,401.408c-2.238,0-4.132-1.893-4.132-4.133v-16.571l-11.294,11.957
		c-0.665,0.665-1.792,1.067-3.006,1.067c-1.232,0-2.338-0.4-3.035-1.099l-31.18-31.179c-1.126-1.555-1.447-4.217-0.054-5.611
		l8.531-9.837l-13.476-1.925c-1.756-0.354-3.32-2.293-3.32-4.146V295.9c0-2.24,1.894-4.133,4.132-4.133h13.309l-9.053-11.637
		c-0.993-1.326-1.198-3.6,0.39-5.188l31.231-31.232c0.696-0.697,1.71-1.096,2.779-1.096s2.083,0.399,2.779,1.096l11.775,10.473
		V239.58c0-2.24,1.894-4.132,4.134-4.132h43.52c2.239,0,4.132,1.892,4.132,4.132v17.75l11.395-12.733l0.059-0.088
		c0.619-0.929,1.551-1.38,2.848-1.38c1.232,0,2.34,0.4,3.036,1.097l31.231,31.232c0.697,0.696,1.097,1.804,1.097,3.035
		s-0.398,2.338-1.097,3.034l-11.266,11.266h15.909c1.157,0,2.216,0.368,2.98,1.036c0.753,0.66,1.15,1.554,1.15,2.584v44.03
		c0,2.24-1.893,4.134-4.132,4.134H441.33l12.936,10.894l0.07,0.047c0.929,0.619,1.38,1.551,1.38,2.848
		c0,1.232-0.398,2.339-1.097,3.035l-31.231,31.231c-0.696,0.697-1.805,1.099-3.036,1.099c-1.23,0-2.338-0.4-3.034-1.099
		l-11.266-11.264v15.907c0,2.24-1.893,4.134-4.132,4.134L357.888,401.408L357.888,401.408z M357.51,365.492
		c0.28,0,1.002,0.043,1.653,0.441c0.53,0.248,0.866,0.51,1.002,0.762c0.09,0.146,0.897,1.549,0.897,1.549
		c0.201,0.464,0.444,1.156,0.444,1.384v22.492h36.28v-21.979c0-0.703,0.077-0.892,0.145-1.059l0.044-0.111
		c0.021-0.066,0.646-2.336,2.173-2.652c0.283-0.049,1.157-0.183,1.578-0.183c0.448,0,1.688,0.269,2.127,0.37
		c0.031,0.041,0.431,0.439,0.58,0.59l15.405,15.405l25.234-25.233L427.738,342.1c-0.361-0.414-0.62-1.041-0.774-1.416
		c-0.229-0.578-0.632-2.07-0.081-2.869l0.06-0.098c0.494-0.861,1.103-1.336,1.81-1.406l27.404,0.002v-35.769h-21.469
		c-2.225,0-4.116-1.894-4.133-4.136c-0.007-1.01,1.143-2.69,3.071-4.498l13.422-13.418l-25.219-25.219l-14.881,16.536
		c-0.646,0.644-1.769,1.039-2.981,1.039h-0.512c-2.239,0-4.132-1.894-4.132-4.133V243.2h-36.28v19.42
		c0,2.231-1.879,4.118-4.106,4.132c-0.121-0.016-0.319-0.038-0.426-0.047c-0.312-0.025-0.386-0.032-0.896-0.27
		c-0.135-0.063-0.264-0.115-0.395-0.17c-0.28-0.119-0.547-0.229-0.926-0.447c-0.191-0.111-0.396-0.229-0.626-0.351l-14.739-13.102
		l-25.973,25.973l10.555,14.443l0.082,0.081c0.308,0.308,0.57,1.074,0.713,1.486l0.067,0.194c0.063,0.176,0.101,0.281,0.191,0.595
		c0.114,0.396,0.125,0.863,0.125,1.271c0,2.238-1.894,4.132-4.134,4.132H305.7v36.739l15.782,0.563
		c0.564,0.031,2.212,0.266,2.92,0.95l0.169,0.157c0.332,0.305,0.619,0.566,0.682,1.189c0.047,0.475-0.053,1.903-0.095,2.414
		c-0.064,1.049-0.933,2.338-0.94,2.352l-10.876,12.502l25.621,25.621l15.396-15.946c0.06-0.062,0.153-0.138,0.252-0.218
		c0.089-0.074,0.182-0.15,0.265-0.227c0.092-0.082,0.179-0.131,0.263-0.18c0.101-0.059,0.196-0.117,0.294-0.191l0.566-0.334
		c0.458-0.197,1.15-0.44,1.377-0.44L357.51,365.492z"/>
	<path fill="#FF5533" d="M128,421.889c-3.292,0-6.18-2.889-6.18-6.181c0-3.293,2.888-6.181,6.18-6.181h20.809l18.729-30.647H84.48
		c-14.136,0-25.636-11.5-25.636-25.636V121.308c0-14.136,11.5-25.636,25.636-25.636h279.552c14.136,0,25.636,11.5,25.636,25.636
		v93.696c0,3.292-2.888,6.18-6.18,6.18c-3.293,0-6.182-2.888-6.182-6.18v-93.696c0-7.196-6.079-13.276-13.274-13.276H83.968
		c-7.196,0-13.276,6.08-13.276,13.276v190.94h19.896V147.42c0-11.03,8.974-20.004,20.004-20.004h228.864
		c11.03,0,20.004,8.974,20.004,20.004v68.608c0,3.292-2.888,6.18-6.18,6.18c-3.293,0-6.182-2.888-6.182-6.18v-68.096
		c0-3.691-3.07-7.644-7.644-7.644H110.592c-3.691,0-7.644,3.072-7.644,7.644v16.348h155.612c3.291,0,6.18,2.888,6.18,6.18
		s-2.889,6.18-6.18,6.18H102.948v136.12h175.579c3.293,0,6.181,2.889,6.181,6.18c0,3.293-2.888,6.182-6.181,6.182H71.204v28.124
		c0,7.196,6.08,13.274,13.276,13.274h208.896c3.69,0,6.692,2.772,6.692,6.182c0,3.292-2.889,6.18-6.18,6.18h-19.524l7.991,13.527
		c1.66,2.904,0.756,6.998-1.895,8.617c-0.258,0.088-0.501,0.175-0.736,0.259c-1.091,0.39-1.778,0.637-2.732,0.637
		c-1.366,0-3.881-0.371-5.37-2.854l-12.216-20.186h-77.463l-18.729,30.646h148.594c3.523,0,6.182,2.658,6.182,6.182
		c0,3.292-2.889,6.18-6.182,6.18H128L128,421.889z"/>
	<path fill="#FF5533" d="M282.111,175.616c-2.746,0-5.155-2.41-5.155-5.156c0-3.385,2.594-5.156,5.155-5.156
		c2.746,0,5.156,2.409,5.156,5.156S284.857,175.616,282.111,175.616z"/>
	<path fill="#FF5533" d="M306.688,175.616c-2.745,0-5.154-2.41-5.154-5.156c0-3.385,2.594-5.156,5.154-5.156
		c2.747,0,5.156,2.409,5.156,5.156S309.435,175.616,306.688,175.616z"/>
	<path fill="#FF5533" d="M331.264,175.616c-2.746,0-5.154-2.41-5.154-5.156c0-2.922,1.922-5.211,4.376-5.211
		c0.187,0,0.376,0.013,0.565,0.041l0.143,0.015c2.817,0,5.228,2.409,5.228,5.156S334.011,175.616,331.264,175.616z"/>
	<path fill="#FF5533" d="M144.384,292.352c-3.292,0-6.18-2.888-6.18-6.18v-76.288c0-3.523,2.657-6.18,6.18-6.18
		c3.292,0,6.18,2.888,6.18,6.18v76.288C150.564,289.464,147.676,292.352,144.384,292.352z"/>
	<path fill="#FF5533" d="M182.784,292.352c-3.292,0-6.18-2.888-6.18-6.18v-45.568c0-3.523,2.657-6.18,6.18-6.18
		c3.292,0,6.18,2.888,6.18,6.18v45.568C188.964,289.464,186.076,292.352,182.784,292.352z"/>
	<path fill="#FF5533" d="M221.184,292.352c-3.292,0-6.18-2.888-6.18-6.18v-76.288c0-3.523,2.657-6.18,6.18-6.18
		c3.292,0,6.18,2.888,6.18,6.18v76.288C227.364,289.464,224.476,292.352,221.184,292.352z"/>
	<path fill="#FF5533" d="M259.584,292.352c-3.292,0-6.18-2.888-6.18-6.18v-40.448c0-3.292,2.888-6.18,6.18-6.18
		c3.754,0,6.18,2.426,6.18,6.18v40.448C265.764,289.464,262.876,292.352,259.584,292.352z"/>
</g>
</svg>
