<?xml version="1.0" encoding="utf-8"?>
<!-- Generator: Adobe Illustrator 16.0.3, SVG Export Plug-In . SVG Version: 6.00 Build 0)  -->
<!DOCTYPE svg PUBLIC "-//W3C//DTD SVG 1.1//EN" "http://www.w3.org/Graphics/SVG/1.1/DTD/svg11.dtd">
<svg version="1.1" id="Capa_1" xmlns="http://www.w3.org/2000/svg" xmlns:xlink="http://www.w3.org/1999/xlink" x="0px" y="0px"
	 width="512px" height="512px" viewBox="0 0 512 512" enable-background="new 0 0 512 512" xml:space="preserve">
<g>
	<path fill="#FF5533" d="M419.51,87.487H92.47c-9.411,0-17.066,7.656-17.066,17.066v230.97c0,9.422,7.656,17.088,17.066,17.088
		h97.54v30.814h-37.213c-11.322,0-20.534,9.213-20.534,20.534v14.94c0,3.095,2.518,5.612,5.613,5.612h236.248
		c3.096,0,5.614-2.519,5.614-5.612v-14.94c0-11.321-9.222-20.534-20.556-20.534h-37.191v-30.814h97.519
		c9.421,0,17.086-7.666,17.086-17.088v-230.97C436.596,95.143,428.931,87.487,419.51,87.487z M359.184,394.65
		c5.144,0,9.327,4.177,9.327,9.309v9.328H143.489v-9.328c0-5.132,4.176-9.309,9.308-9.309H359.184z M201.236,383.425v-30.815
		h109.529v30.815H201.236z M425.371,308.498H287.928c-3.095,0-5.611,2.52-5.611,5.613s2.518,5.611,5.611,5.611H425.37v15.801
		c0,3.178-2.685,5.861-5.86,5.861H92.47c-3.166,0-5.84-2.685-5.84-5.861v-15.801h137.422c3.095,0,5.613-2.518,5.613-5.611
		s-2.518-5.613-5.613-5.613H86.63V104.553c0-3.165,2.674-5.839,5.84-5.839h327.041c3.177,0,5.86,2.674,5.86,5.839V308.498
		L425.371,308.498z"/>
	<path fill="#FF5533" d="M392.612,232.22h-96.397c-3.095,0-5.613,2.518-5.613,5.613v44.278c0,3.095,2.52,5.613,5.613,5.613h96.397
		c3.095,0,5.612-2.52,5.612-5.613v-44.278c0-1.499-0.584-2.908-1.644-3.969C395.521,232.804,394.111,232.22,392.612,232.22z
		 M301.828,276.498v-33.052h85.171L387,276.498H301.828z"/>
	<path fill="#FF5533" d="M260.729,183.122h-2.117l-0.325-1.058c-1.343-4.346-3.111-8.6-5.257-12.645l-0.519-0.977l1.484-1.491
		c2.241-2.222,3.475-5.191,3.475-8.36s-1.228-6.132-3.458-8.346l-12.243-12.242c-2.222-2.241-5.191-3.476-8.361-3.476
		c-3.169,0-6.132,1.228-8.345,3.458l-1.498,1.498l-0.979-0.519c-4.037-2.137-8.293-3.902-12.651-5.247l-1.058-0.327v-2.103
		c0-6.519-5.295-11.823-11.803-11.823h-17.34c-6.508,0-11.803,5.304-11.803,11.823v2.103l-1.058,0.327
		c-4.363,1.346-8.619,3.111-12.651,5.247l-0.979,0.519l-1.498-1.498c-2.23-2.229-5.206-3.458-8.376-3.458
		c-3.155,0.006-6.105,1.232-8.31,3.456l-12.283,12.262c-2.221,2.222-3.444,5.186-3.444,8.346c0,3.159,1.223,6.122,3.443,8.343
		l1.512,1.512l-0.521,0.98c-2.142,4.03-3.906,8.281-5.245,12.636l-0.326,1.059h-2.116c-6.508,0-11.803,5.295-11.803,11.803v17.341
		c0,6.52,5.295,11.823,11.803,11.823h2.116l0.325,1.059c1.342,4.358,3.105,8.606,5.24,12.625l0.521,0.982l-1.523,1.517
		c-4.56,4.597-4.55,12.088,0.02,16.697l12.275,12.257c2.217,2.215,5.176,3.437,8.331,3.437c3.156,0,6.125-1.222,8.359-3.437
		l1.497-1.498l0.979,0.52c4.037,2.137,8.293,3.898,12.649,5.236l1.06,0.326v2.112c0,6.509,5.295,11.804,11.803,11.804h17.34
		c6.508,0,11.803-5.295,11.803-11.804v-2.112l1.06-0.326c4.358-1.338,8.614-3.101,12.65-5.237l0.98-0.519l1.495,1.498
		c2.222,2.221,5.186,3.442,8.345,3.442c3.159,0,6.124-1.224,8.345-3.442l12.259-12.261c2.229-2.23,3.458-5.198,3.458-8.355
		c0-3.157-1.228-6.124-3.458-8.354l-1.497-1.496l0.52-0.979c2.143-4.038,3.91-8.288,5.25-12.632l0.326-1.058h2.117
		c6.508,0,11.803-5.304,11.803-11.823v-17.34C272.531,188.417,267.236,183.122,260.729,183.122z M261.305,212.863h-7.049
		c-2.645,0-4.896,1.802-5.477,4.382c-1.54,6.853-4.251,13.381-8.059,19.403c-1.412,2.233-1.093,5.099,0.775,6.969l4.994,4.992
		l-13.083,13.083l-4.983-4.982c-1.061-1.061-2.471-1.645-3.971-1.645c-1.062,0-2.099,0.3-2.998,0.869
		c-5.991,3.788-12.525,6.491-19.42,8.038c-2.582,0.579-4.385,2.831-4.385,5.479v7.05h-18.494v-7.05c0-2.646-1.803-4.897-4.385-5.479
		c-6.892-1.545-13.425-4.248-19.42-8.038c-0.899-0.568-1.936-0.869-2.997-0.869c-1.501,0-2.912,0.584-3.973,1.644l-4.983,4.981
		l-13.104-13.081l5.006-4.983c1.881-1.874,2.201-4.748,0.778-6.988c-3.792-5.97-6.501-12.495-8.052-19.393
		c-0.58-2.58-2.832-4.382-5.477-4.382h-7.049v-18.515h7.049c2.644,0,4.896-1.802,5.477-4.383c1.551-6.899,4.26-13.424,8.052-19.393
		c1.42-2.236,1.104-5.105-0.769-6.979l-5.003-5.005l13.092-13.071l4.983,4.983c1.061,1.061,2.472,1.645,3.973,1.645
		c1.062,0,2.097-0.3,2.996-0.869c5.979-3.779,12.518-6.492,19.434-8.062c2.573-0.583,4.371-2.834,4.371-5.474v-7.05h18.494v7.05
		c0,2.639,1.797,4.89,4.371,5.474c6.913,1.568,13.452,4.281,19.435,8.063c0.897,0.567,1.932,0.868,2.994,0.868
		c1.501,0,2.913-0.584,3.973-1.644l4.983-4.983l13.07,13.071l-4.99,5.014c-1.86,1.868-2.175,4.729-0.767,6.958
		c3.807,6.024,6.519,12.552,8.059,19.403c0.58,2.58,2.832,4.382,5.477,4.382h7.049v18.517H261.305z"/>
	<path fill="#FF5533" d="M225.659,178.564l-34.357-20.708c-0.875-0.527-1.877-0.805-2.898-0.805s-2.021,0.278-2.896,0.804
		l-34.378,20.708c-1.65,0.994-2.716,2.881-2.716,4.808v40.469c0,1.956,1.041,3.798,2.716,4.808l34.378,20.708
		c0.859,0.518,1.86,0.791,2.895,0.791c1.036,0,2.038-0.274,2.898-0.792l34.357-20.708c1.675-1.01,2.716-2.852,2.716-4.807v-40.463
		c-0.001-0.222-0.02-0.448-0.046-0.67C228.124,180.996,227.126,179.448,225.659,178.564z M182.792,234.613l-23.151-13.945v-27.363
		l23.151,13.946V234.613z M188.403,197.526l-23.497-14.155l23.497-14.154l23.485,14.154L188.403,197.526z M217.148,220.669
		l-23.131,13.942V207.25l23.131-13.941V220.669z"/>
	<path fill="#FF5533" d="M392.612,134.267h-64.46c-3.096,0-5.612,2.518-5.612,5.613c0,3.095,2.518,5.613,5.612,5.613h64.46
		c3.096,0,5.613-2.518,5.613-5.613C398.227,136.785,395.708,134.267,392.612,134.267z"/>
	<path fill="#FF5533" d="M296.215,145.493h0.041c3.084,0,5.593-2.518,5.593-5.613c0-3.095-2.526-5.613-5.633-5.613
		c-3.095,0-5.612,2.518-5.612,5.613C290.604,142.975,293.12,145.493,296.215,145.493z"/>
	<path fill="#FF5533" d="M328.133,176.302h64.44c3.095,0,5.611-2.518,5.611-5.613s-2.518-5.613-5.611-5.613h-64.44
		c-3.096,0-5.614,2.518-5.614,5.613S325.037,176.302,328.133,176.302z"/>
	<path fill="#FF5533" d="M296.195,176.302h0.02c3.09,0,5.604-2.518,5.604-5.613s-2.522-5.613-5.624-5.613
		c-3.096,0-5.613,2.518-5.613,5.613C290.581,173.784,293.1,176.302,296.195,176.302z"/>
	<path fill="#FF5533" d="M328.092,207.112h64.461c3.096,0,5.613-2.519,5.613-5.614c0-3.095-2.519-5.613-5.613-5.613h-64.461
		c-3.095,0-5.611,2.518-5.611,5.613C322.479,204.593,324.997,207.112,328.092,207.112z"/>
	<path fill="#FF5533" d="M296.154,207.112h0.041c3.084,0,5.593-2.519,5.593-5.614c0-3.095-2.527-5.613-5.634-5.613
		c-3.094,0-5.612,2.518-5.612,5.613C290.542,204.593,293.061,207.112,296.154,207.112z"/>
	<path fill="#FF5533" d="M255.989,308.498c-3.095,0-5.613,2.52-5.613,5.613s2.518,5.611,5.613,5.611h0.042
		c3.084,0,5.593-2.518,5.593-5.611S259.098,308.498,255.989,308.498z"/>
</g>
</svg>
