<?xml version="1.0" encoding="utf-8"?>
<!-- Generator: Adobe Illustrator 16.0.3, SVG Export Plug-In . SVG Version: 6.00 Build 0)  -->
<!DOCTYPE svg PUBLIC "-//W3C//DTD SVG 1.1//EN" "http://www.w3.org/Graphics/SVG/1.1/DTD/svg11.dtd">
<svg version="1.1" id="Layer_1" xmlns="http://www.w3.org/2000/svg" xmlns:xlink="http://www.w3.org/1999/xlink" x="0px" y="0px"
	 width="512px" height="512px" viewBox="0 0 512 512" enable-background="new 0 0 512 512" xml:space="preserve">
<g>
	<path fill="#FF5533" d="M402.574,180.097l-0.782-1.514l0.902-1.446c6.854-11.016,10.329-21.275,10.329-30.495
		c0.012-14.145-5.486-27.448-15.481-37.458c-9.992-10.01-23.302-15.529-37.478-15.541c-11.942,0-23.662,4.099-33,11.541
		l-1.434,1.141l-1.67-0.753c-21.489-9.686-44.334-14.597-67.901-14.597c-29.783,0-59.046,8.059-84.626,23.306l-1.352,0.806
		l-1.431-0.653c-6.978-3.188-14.372-4.804-21.978-4.804c-20.691,0-39.615,12.156-48.21,30.969
		c-3.184,6.967-4.795,14.385-4.791,22.048c0,8.695,3.096,18.327,9.201,28.629l0.759,1.28l-0.561,1.378
		c-8.048,19.798-12.107,40.699-12.065,62.113c-0.867,41.568,16.378,83.523,47.314,115.11c31.04,31.692,72.779,49.869,114.517,49.869
		c1.04,0,2.074-0.012,3.213-0.033c0.589,0.007,1.181,0.011,1.769,0.011c33.356,0,67.234-11.318,95.396-31.873
		c28.189-20.572,49.318-49.441,59.492-81.283C426.533,265.902,422.841,219.34,402.574,180.097z M113.643,285.416
		c0.667,0.732,1.526,1.248,2.486,1.488l19.979,4.992l0.598,0.617c6.258,6.469,11.501,12.986,12.752,15.853l0.201,0.461l0.041,0.505
		c0.493,6.246,9.63,9.039,19.764,11.574c5.542,1.384,11.074,2.453,13.879,2.97l0.92,0.167l12.119,12.117l-13.994,23.322
		c-0.327,0.545-0.545,1.14-0.647,1.769l-4.584,28.204l-3.836-2.421c-37.064-23.42-62.61-61.632-70.086-104.834l-1.755-10.146
		L113.643,285.416z M191.46,363.809l15.507-25.848c1.183-1.971,0.875-4.482-0.749-6.107l-16.001-16.002
		c-0.741-0.74-1.679-1.223-2.713-1.396c-10.788-1.802-22.275-4.708-26.722-6.763l-1.171-0.543l-0.411-1.219
		c-1.185-3.511-5.093-10.19-16.985-22.082c-0.643-0.643-1.446-1.098-2.324-1.316l-19.867-4.967l-19.012-20.883l0.001-1.165
		c0.021-16.269,2.601-32.36,7.668-47.827l1.701-5.191l3.467,4.222c1.596,1.942,3.313,3.938,5.105,5.933
		c7.526,8.337,15.769,16.128,24.552,23.193c1.321,0.814,2.362,1.193,3.273,1.193c1.803,0,3.869-1.689,7.056-4.471l3.694-3.226
		l8.296,33.182c0.278,1.111,0.935,2.103,1.851,2.789l21.341,16.006c0.226,0.171,0.48,0.328,0.758,0.467l49.918,24.961l-4.583,22.925
		c-0.064,0.318-0.097,0.647-0.098,0.979v26.668c0,1.906,1.06,3.619,2.765,4.472l29.237,14.619v28.912
		c0,0.466,0.064,0.926,0.191,1.368l1.109,3.851l-3.763,0.205c-2.905,0.16-5.778,0.241-8.538,0.241h-0.181
		c-23.203,0-46.496-5.36-67.359-15.5l-2.009-0.977L191.46,363.809z M278.314,409.408l-0.549-2.158l-0.75-2.629v-31.298
		c0-1.907-1.06-3.621-2.765-4.474l-29.238-14.617l0.001-23.088l5.984-29.922l-56.344-28.173l-19.553-14.666l-9.213-36.835
		l1.201-1.201c2.555-2.555,5.013-5.141,7.306-7.686c16.777-18.645,25.284-35.473,25.284-50.018
		c0.004-14.67-6.165-28.804-16.926-38.776l-3.099-2.87l3.731-1.981c22.24-11.803,47.303-18.041,72.479-18.041h0.516
		c20.136,0,39.786,3.88,58.406,11.534l3.419,1.405l-2.077,3.056c-5.974,8.79-9.123,19.036-9.109,29.638
		c0.064,5.213,1.009,10.338,2.806,15.231l0.926,2.519l-35.636,17.817c-0.621,0.311-1.161,0.738-1.604,1.271l-24.134,28.96
		l-17.792-8.896c-0.691-0.346-1.464-0.528-2.237-0.528c-0.638,0-1.262,0.12-1.856,0.357l-26.669,10.668
		c-2.239,0.895-3.52,3.261-3.045,5.625l5.333,26.668c0.263,1.31,1.02,2.439,2.13,3.18l32.002,21.335
		c0.601,0.399,1.296,0.67,2.011,0.778l12.637,1.952l-0.59,3.059c-0.637,3.301-0.962,6.67-0.965,10.02
		c0.015,3.128,0.384,6.263,1.095,9.316l1.333,5.666l2.572,5.653c4.165,9.153,10.988,19.04,20.282,29.384
		c7.574,8.392,15.867,16.221,24.65,23.276c0.873,0.681,1.965,1.054,3.07,1.054s2.18-0.361,3.033-1.022
		c8.801-7.067,17.105-14.906,24.688-23.3c3.682-4.092,6.996-8.137,9.853-12.021l1.134-1.539l32.823,6.563l6.054,18.164l-0.948,1.256
		c-24.154,32.121-59.297,53.392-98.954,59.895L278.314,409.408z M360.018,103.143l0.008,0.5
		c23.682,0.026,42.971,19.317,42.999,43.001c0,24.746-34.193,55.372-41.05,61.26l-1.974,1.696l-1.957-1.716
		c-15.136-13.26-40.593-38.85-41.024-61.242c0.027-23.683,19.316-42.972,42.999-42.999L360.018,103.143z M303.333,243.636
		l-0.001-0.5l0.01,0.5c23.683,0.026,42.972,19.317,42.999,43.003c0,24.739-34.192,55.368-41.048,61.258l-1.954,1.68l-1.954-1.68
		c-6.854-5.89-41.049-36.52-41.049-61.262C260.364,262.952,279.652,243.663,303.333,243.636z M337.761,202.479l2.868,2.94
		l-6.845,3.424c-1.866,0.933-2.964,2.952-2.733,5.025l3.269,29.405l-5.096-2.861c-7.908-4.441-16.852-6.788-25.86-6.788
		c-19.137,0-36.836,10.352-46.194,27.017c-0.265,0.471-0.521,0.945-0.771,1.424l-0.995,1.904l-13.533-2.093l-29.359-19.573
		l-4.11-20.557l20.72-8.288l19.327,9.662c0.691,0.346,1.463,0.529,2.233,0.529c1.49,0,2.892-0.656,3.846-1.8l25.997-31.198
		l34.528-17.263l1.438,2.339c4.575,7.436,9.896,14.479,15.814,20.929C334.076,198.626,335.913,200.584,337.761,202.479z
		 M349.752,310.541c3.562-6.939,5.702-13.604,6.366-19.805l0.335-3.166l30.499,5.084l15.191,15.191l-0.665,1.801
		c-2.789,7.562-6.196,14.953-10.128,21.973l-3.315,5.924l-4.604-13.807c-0.563-1.696-2.006-2.969-3.763-3.32l-31.729-6.346
		L349.752,310.541z M406.832,291.92l-1.238,5.232l-12.702-12.703c-0.74-0.741-1.679-1.225-2.713-1.396l-30.026-5.003l-6.862-9.145
		l-0.15-0.414c-1.711-4.663-4.065-9.06-7.003-13.066l-0.475-0.646l-4.287-38.55l7.044-3.523l1.519,1.336
		c4.01,3.533,6.719,5.653,7.015,5.883c0.875,0.68,1.966,1.054,3.07,1.054c1.105,0,2.182-0.362,3.033-1.024
		c8.811-7.075,17.114-14.914,24.687-23.298c1.571-1.748,3.09-3.501,4.513-5.211l3.068-3.691l1.975,4.375
		c9.107,20.207,13.727,41.69,13.729,63.852C411.029,268.066,409.619,280.159,406.832,291.92z M146.679,119.644
		c23.683,0.026,42.973,19.317,42.999,43.002c0,19.171-20.412,41.76-32.552,53.494c-0.194,0.162-0.385,0.347-0.704,0.69
		c-2.603,2.489-5.222,4.869-7.785,7.073l-1.954,1.68l-1.956-1.679c-6.855-5.886-41.054-36.502-41.054-61.262
		c0.026-23.683,19.316-42.973,42.999-42.999v-0.5L146.679,119.644z"/>
	<path fill="#FF5533" d="M123.008,162.646c0,13.048,10.616,23.666,23.665,23.668c13.037-0.015,23.656-10.632,23.671-23.668
		c0-13.051-10.617-23.668-23.668-23.668C133.625,138.978,123.008,149.595,123.008,162.646z M146.676,148.979
		c7.536,0,13.667,6.131,13.667,13.667s-6.133,13.667-13.67,13.667c-7.526-0.008-13.656-6.14-13.665-13.667
		C133.009,155.109,139.14,148.979,146.676,148.979z"/>
	<path fill="#FF5533" d="M360.024,170.313c13.049-0.003,23.663-10.621,23.663-23.668c0-13.051-10.616-23.668-23.666-23.668
		c-13.052,0-23.67,10.616-23.67,23.665C336.366,159.679,346.985,170.298,360.024,170.313z M360.021,132.978
		c7.534,0,13.666,6.131,13.666,13.667s-6.132,13.667-13.666,13.667c-7.536,0-13.669-6.133-13.669-13.67
		c0.011-7.526,6.141-13.656,13.665-13.664l-0.001-0.5L360.021,132.978z"/>
	<path fill="#FF5533" d="M327.005,286.639c0-13.052-10.618-23.668-23.669-23.668c-13.05,0-23.666,10.616-23.666,23.668
		c0,13.049,10.615,23.666,23.663,23.668C316.371,310.291,326.991,299.674,327.005,286.639z M303.336,272.971
		c7.536,0,13.668,6.131,13.668,13.668c0,7.535-6.133,13.666-13.671,13.666c-7.524-0.009-13.653-6.14-13.663-13.666
		C289.67,279.102,295.801,272.971,303.336,272.971z"/>
</g>
</svg>
